<svg width="100%" height="100%" viewBox="0 0 251 122" xmlns="http://www.w3.org/2000/svg"><path d="M26.47 15.977c5.257 0 9.503 1.577 12.737 4.732 3.233 3.155 4.85 7.835 4.85 14.039V59.04H31.753v-22.4c0-3.364-.736-5.875-2.208-7.531-1.472-1.656-3.602-2.485-6.388-2.485-3.103 0-5.574.96-7.414 2.88-1.84 1.918-2.76 4.77-2.76 8.557V59.04H.678V.518h12.303v20.507c1.63-1.63 3.602-2.88 5.916-3.747 2.313-.867 4.837-1.301 7.571-1.301zm67.138 22.005c0 .157-.08 1.262-.237 3.312h-32.1c.578 2.63 1.945 4.706 4.101 6.231 2.156 1.525 4.837 2.287 8.045 2.287 2.208 0 4.167-.328 5.876-.986 1.708-.657 3.299-1.695 4.771-3.115l6.546 7.098c-3.996 4.575-9.832 6.862-17.509 6.862-4.784 0-9.017-.933-12.698-2.8-3.68-1.867-6.52-4.456-8.518-7.769-1.998-3.312-2.997-7.072-2.997-11.278 0-4.154.986-7.9 2.958-11.239 1.972-3.339 4.68-5.942 8.123-7.808 3.444-1.867 7.296-2.8 11.555-2.8 4.154 0 7.913.894 11.278 2.682 3.365 1.787 6.008 4.35 7.927 7.69 1.919 3.338 2.879 7.216 2.879 11.633zM71.603 25.284c-2.787 0-5.127.788-7.02 2.366-1.893 1.577-3.05 3.733-3.47 6.467h20.9c-.42-2.682-1.577-4.824-3.47-6.428-1.893-1.604-4.206-2.405-6.94-2.405zM98.906.518h12.304V59.04H98.906V.518zm19.956 0h12.304V59.04h-12.304V.518zm41.026 59.153c-4.469 0-8.478-.933-12.027-2.8-3.55-1.867-6.323-4.456-8.321-7.769-1.998-3.312-2.997-7.072-2.997-11.278s.999-7.966 2.997-11.278c1.998-3.313 4.772-5.903 8.32-7.77 3.55-1.866 7.56-2.799 12.028-2.799 4.47 0 8.466.933 11.989 2.8 3.523 1.866 6.283 4.456 8.281 7.769 1.998 3.312 2.997 7.072 2.997 11.278s-.999 7.966-2.997 11.278c-1.998 3.313-4.758 5.902-8.281 7.77-3.523 1.866-7.52 2.799-11.989 2.799zm0-10.095c3.155 0 5.745-1.065 7.77-3.195 2.023-2.13 3.036-4.982 3.036-8.557s-1.013-6.428-3.037-8.557c-2.024-2.13-4.614-3.195-7.769-3.195-3.154 0-5.757 1.065-7.808 3.195-2.05 2.13-3.076 4.982-3.076 8.557s1.026 6.428 3.076 8.557c2.051 2.13 4.654 3.195 7.808 3.195zm32.746-5.206c2.208 0 4.022.697 5.442 2.09 1.42 1.394 2.13 3.22 2.13 5.482 0 1.051-.132 2.103-.395 3.154-.263 1.052-.841 2.63-1.735 4.733l-4.496 11.357h-7.808l3.47-12.54a6.482 6.482 0 0 1-3.115-2.564c-.762-1.183-1.144-2.563-1.144-4.14 0-2.261.723-4.088 2.17-5.482 1.445-1.393 3.272-2.09 5.48-2.09zM12.43 84.248c1.473-2.05 3.457-3.602 5.955-4.654 2.498-1.051 5.376-1.577 8.636-1.577v11.357c-1.367-.105-2.287-.157-2.76-.157-3.523 0-6.284.985-8.282 2.957-1.998 1.972-2.997 4.93-2.997 8.873v20.033H.68V78.648H12.43v5.6zm40.403 37.463c-4.47 0-8.479-.933-12.028-2.8-3.55-1.867-6.323-4.456-8.321-7.769-1.998-3.312-2.997-7.072-2.997-11.278s.999-7.966 2.997-11.278c1.998-3.313 4.772-5.903 8.32-7.77 3.55-1.866 7.56-2.799 12.029-2.799s8.465.933 11.988 2.8c3.523 1.866 6.283 4.456 8.281 7.769C75.1 91.898 76.1 95.658 76.1 99.864s-.999 7.966-2.997 11.278c-1.998 3.313-4.758 5.902-8.281 7.77-3.523 1.866-7.52 2.799-11.988 2.799zm0-10.095c3.154 0 5.744-1.065 7.768-3.195 2.025-2.13 3.037-4.982 3.037-8.557s-1.012-6.428-3.037-8.557c-2.024-2.13-4.614-3.195-7.768-3.195-3.155 0-5.758 1.065-7.809 3.195-2.05 2.13-3.076 4.982-3.076 8.557s1.026 6.428 3.076 8.557c2.051 2.13 4.654 3.195 7.809 3.195zm82.73-33.599c5.31 0 9.53 1.564 12.659 4.693 3.128 3.128 4.692 7.821 4.692 14.078v24.292h-12.303v-22.4c0-3.364-.697-5.875-2.09-7.531-1.394-1.656-3.379-2.485-5.955-2.485-2.892 0-5.18.934-6.862 2.8-1.682 1.867-2.524 4.64-2.524 8.321v21.295h-12.303v-22.4c0-6.677-2.682-10.016-8.045-10.016-2.84 0-5.1.934-6.783 2.8-1.682 1.867-2.524 4.64-2.524 8.321v21.295H81.222V78.648h11.751v4.89c1.578-1.788 3.51-3.155 5.797-4.101 2.287-.947 4.798-1.42 7.532-1.42 2.997 0 5.705.591 8.124 1.775a14.386 14.386 0 0 1 5.836 5.166c1.735-2.209 3.93-3.918 6.586-5.127 2.655-1.21 5.56-1.814 8.715-1.814zm42.604 0c6.573 0 11.62 1.564 15.143 4.693 3.523 3.128 5.284 7.847 5.284 14.157v24.213H187.08v-5.284c-2.313 3.943-6.625 5.915-12.934 5.915-3.26 0-6.086-.552-8.479-1.656-2.392-1.104-4.22-2.63-5.481-4.575-1.262-1.945-1.893-4.154-1.893-6.625 0-3.943 1.485-7.046 4.456-9.307 2.97-2.26 7.558-3.39 13.763-3.39h9.78c0-2.683-.815-4.746-2.445-6.192-1.63-1.446-4.075-2.17-7.335-2.17-2.261 0-4.483.356-6.665 1.066-2.182.71-4.035 1.669-5.56 2.878l-4.417-8.596c2.314-1.63 5.087-2.892 8.321-3.786a37.274 37.274 0 0 1 9.977-1.341zm-.946 35.413c2.103 0 3.97-.487 5.6-1.46 1.63-.972 2.786-2.405 3.47-4.298v-4.338h-8.44c-5.047 0-7.571 1.657-7.571 4.97 0 1.576.618 2.825 1.853 3.745 1.236.92 2.932 1.38 5.088 1.38zm55.38-35.413c5.259 0 9.504 1.577 12.738 4.732 3.234 3.155 4.85 7.835 4.85 14.039v24.292h-12.303v-22.4c0-3.364-.736-5.875-2.209-7.531-1.472-1.656-3.601-2.485-6.388-2.485-3.102 0-5.573.96-7.414 2.88-1.84 1.918-2.76 4.77-2.76 8.557v20.979H206.81V78.648h11.752v4.969c1.63-1.788 3.654-3.168 6.073-4.14 2.418-.974 5.074-1.46 7.966-1.46z" fill="#1D1D1D" fill-rule="evenodd"/></svg>