<?xml version="1.0" encoding="UTF-8"?>
<svg width="130px" height="139px" viewBox="0 0 130 139" version="1.1" xmlns="http://www.w3.org/2000/svg" xmlns:xlink="http://www.w3.org/1999/xlink">
    <!-- Generator: Sketch 52.2 (67145) - http://www.bohemiancoding.com/sketch -->
    <title>ytplay</title>
    <desc>Created with Sketch.</desc>
    <defs>
        <linearGradient x1="122.588196%" y1="-25.958737%" x2="50%" y2="100%" id="linearGradient-1">
            <stop stop-color="#7649F1" stop-opacity="0.0553668478" offset="0%"></stop>
            <stop stop-color="#4123DE" stop-opacity="0.0553668478" offset="100%"></stop>
        </linearGradient>
        <linearGradient x1="77.3024578%" y1="0%" x2="50%" y2="100%" id="linearGradient-2">
            <stop stop-color="#7649F1" offset="0%"></stop>
            <stop stop-color="#4123DE" offset="100%"></stop>
        </linearGradient>
    </defs>
    <g id="Page-1" stroke="none" stroke-width="1" fill="none" fill-rule="evenodd">
        <g id="Mobile" transform="translate(-157.000000, -1295.000000)" fill-rule="nonzero">
            <g id="ytplay" transform="translate(230.000000, 1355.500000) rotate(-19.000000) translate(-230.000000, -1355.500000) translate(174.000000, 1293.000000)">
                <path d="M0.0835060902,3.23407827 L0.0835060902,117.750574 C0.0835060902,124.176766 5.29296404,129.386224 11.7191561,129.386224 C14.8149824,129.386224 17.7831756,128.152504 19.9668962,125.958079 L76.9458181,68.6998308 C81.4630312,64.160473 81.4630312,56.8241791 76.9458181,52.2848214 L19.9668962,-4.97342646 C15.4340165,-9.52852754 8.06675245,-9.54654154 3.51165136,-5.01366185 C1.31722557,-2.82994124 0.0835060902,0.138252011 0.0835060902,3.23407827 Z" id="Path-2-Copy-2" fill="url(#linearGradient-1)"></path>
                <path d="M19.2054573,7.53095327 L19.2054573,122.047449 C19.2054573,128.473641 24.4149153,133.683099 30.8411073,133.683099 C33.9369336,133.683099 36.9051268,132.449379 39.0888474,130.254954 L96.0677693,72.9967058 C100.584982,68.457348 100.584982,61.1210541 96.0677693,56.5816964 L39.0888474,-0.676551457 C34.5559677,-5.23165254 27.1887037,-5.24966654 22.6336026,-0.716786846 C20.4391768,1.46693376 19.2054573,4.43512701 19.2054573,7.53095327 Z" id="Path-2-Copy" fill="url(#linearGradient-1)"></path>
                <path d="M34.0347256,7.53095327 L34.0347256,122.047449 C34.0347256,128.473641 39.2441836,133.683099 45.6703756,133.683099 C48.7662019,133.683099 51.7343951,132.449379 53.9181157,130.254954 L110.897038,72.9967058 C115.414251,68.457348 115.414251,61.1210541 110.897038,56.5816964 L53.9181157,-0.676551457 C49.385236,-5.23165254 42.017972,-5.24966654 37.4628709,-0.716786846 C35.2684451,1.46693376 34.0347256,4.43512701 34.0347256,7.53095327 Z" id="Path-2" fill="url(#linearGradient-2)" opacity="0.619196429"></path>
            </g>
        </g>
    </g>
</svg>