<?xml version="1.0" encoding="UTF-8"?>
<svg width="100%" height="100%" viewBox="0 0 127 142" version="1.1" xmlns="http://www.w3.org/2000/svg" xmlns:xlink="http://www.w3.org/1999/xlink">
    <!-- Generator: Sketch 52.2 (67145) - http://www.bohemiancoding.com/sketch -->
    <title>ytplay</title>
    <desc>Created with Sketch.</desc>
    <defs>
        <linearGradient x1="122.588196%" y1="-25.958737%" x2="50%" y2="100%" id="linearGradient-1">
            <stop stop-color="#7649F1" offset="0%"></stop>
            <stop stop-color="#4123DE" offset="100%"></stop>
        </linearGradient>
        <linearGradient x1="77.3024578%" y1="0%" x2="50%" y2="100%" id="linearGradient-2">
            <stop stop-color="#7649F1" offset="0%"></stop>
            <stop stop-color="#4123DE" offset="100%"></stop>
        </linearGradient>
    </defs>
    <g id="Page-1" stroke="none" stroke-width="1" fill="none" fill-rule="evenodd">
        <g id="Mobile" transform="translate(-160.000000, -1295.000000)" fill-rule="nonzero">
            <g id="ytplay" transform="translate(231.123896, 1357.228253) rotate(-19.000000) translate(-231.123896, -1357.228253) translate(175.623896, 1296.728253)">
                <path d="M0.943357354,3.04733846 L0.943357354,117.563834 C0.943357354,123.990026 6.1528153,129.199484 12.5790074,129.199484 C15.6748336,129.199484 18.6430269,127.965765 20.8267475,125.771339 L77.8056693,68.513091 C82.3228825,63.9737332 82.3228825,56.6374393 77.8056693,52.0980815 L20.8267475,-5.16016627 C16.2938678,-9.71526735 8.92660371,-9.73328135 4.37150263,-5.20040166 C2.17707683,-3.01668105 0.943357354,-0.0484877985 0.943357354,3.04733846 Z" id="Path-2-Copy-2" fill-opacity="0.1" fill="url(#linearGradient-1)"></path>
                <path d="M18.2054573,3.53095327 L18.2054573,118.047449 C18.2054573,124.473641 23.4149153,129.683099 29.8411073,129.683099 C32.9369336,129.683099 35.9051268,128.449379 38.0888474,126.254954 L95.0677693,68.9967058 C99.5849825,64.457348 99.5849825,57.1210541 95.0677693,52.5816964 L38.0888474,-4.67655146 C33.5559677,-9.23165254 26.1887037,-9.24966654 21.6336026,-4.71678685 C19.4391768,-2.53306624 18.2054573,0.435127011 18.2054573,3.53095327 Z" id="Path-2-Copy" fill-opacity="0.3" fill="url(#linearGradient-1)"></path>
                <path d="M33.0347256,3.53095327 L33.0347256,118.047449 C33.0347256,124.473641 38.2441836,129.683099 44.6703756,129.683099 C47.7662019,129.683099 50.7343951,128.449379 52.9181157,126.254954 L109.897038,68.9967058 C114.414251,64.457348 114.414251,57.1210541 109.897038,52.5816964 L52.9181157,-4.67655146 C48.385236,-9.23165254 41.017972,-9.24966654 36.4628709,-4.71678685 C34.2684451,-2.53306624 33.0347256,0.435127011 33.0347256,3.53095327 Z" id="Path-2" fill="url(#linearGradient-2)" opacity="0.619196429"></path>
            </g>
        </g>
    </g>
</svg>